<?xml version="1.0" standalone="no"?>
<!DOCTYPE svg PUBLIC "-//W3C//DTD SVG 20010904//EN"
 "http://www.w3.org/TR/2001/REC-SVG-20010904/DTD/svg10.dtd">
<svg version="1.0" xmlns="http://www.w3.org/2000/svg"
 width="1024.000000pt" height="1024.000000pt" viewBox="0 0 1024.000000 1024.000000"
 preserveAspectRatio="xMidYMid meet">

<g transform="translate(0.000000,1024.000000) scale(0.100000,-0.100000)"
fill="#ffffffff" stroke="none">
<path d="M4862 6047 c-49 -18 -98 -62 -129 -115 l-28 -47 -3 -297 c-3 -284 -2
-297 15 -290 10 5 36 16 58 26 22 10 75 25 117 34 71 14 83 14 144 -1 128 -32
234 -128 367 -332 43 -66 119 -183 169 -260 160 -247 293 -354 516 -412 72
-19 125 -25 207 -27 122 -1 156 10 191 61 26 39 24 177 -5 298 -42 176 -33
159 -114 199 -39 19 -107 49 -150 66 -115 45 -182 81 -280 151 -151 107 -244
219 -399 479 -108 179 -129 210 -205 290 -77 82 -171 145 -254 171 -68 21
-167 24 -217 6z"/>
<path d="M4159 5348 c-312 -309 -343 -349 -407 -515 -32 -83 -41 -143 -21
-143 6 0 59 30 117 66 388 242 554 348 558 358 2 6 3 116 2 244 l-3 233 -246
-243z"/>
<path d="M4682 4874 c-1 -6 -17 -11 -36 -12 -19 -1 -61 -4 -93 -8 -76 -9 -115
-7 -123 6 -8 12 -20 -347 -20 -583 0 -182 10 -233 52 -274 27 -26 35 -28 127
-31 76 -3 99 -1 103 10 2 7 1 213 -2 458 -3 245 -7 440 -8 434z"/>
</g>
</svg>
