<?xml version="1.0" standalone="no"?>
<!DOCTYPE svg PUBLIC "-//W3C//DTD SVG 20010904//EN"
 "http://www.w3.org/TR/2001/REC-SVG-20010904/DTD/svg10.dtd">
<svg version="1.0" xmlns="http://www.w3.org/2000/svg"
 width="400.000000pt" height="304.000000pt" viewBox="0 0 400.000000 304.000000"
 preserveAspectRatio="xMidYMid meet">

<g transform="translate(0.000000,304.000000) scale(0.100000,-0.100000)"
fill="#ffffffff" stroke="none">
<path d="M1682 2871 c-70 -24 -116 -65 -177 -157 l-34 -51 -3 -384 c-2 -211 1
-390 5 -396 6 -10 17 -8 47 7 21 11 78 31 127 46 202 59 355 19 517 -135 103
-99 161 -176 348 -464 199 -305 269 -399 372 -493 124 -114 259 -185 451 -235
77 -20 114 -24 255 -24 152 0 168 2 200 22 19 12 44 37 55 55 41 69 19 333
-45 542 -24 78 -37 87 -237 172 -280 119 -407 192 -557 320 -140 119 -255 274
-490 657 -150 245 -286 384 -461 472 -131 66 -268 82 -373 46z"/>
<path d="M823 2022 c-279 -273 -459 -464 -509 -540 -104 -156 -190 -412 -139
-412 22 0 478 280 798 490 l97 64 0 318 c0 175 -1 318 -2 317 -2 0 -112 -107
-245 -237z"/>
<path d="M1325 1288 c-49 -5 -120 -7 -157 -6 l-67 3 -6 -45 c-11 -80 -22 -741
-15 -866 8 -131 26 -190 73 -233 22 -20 42 -25 129 -33 56 -5 117 -7 135 -3
l33 6 0 407 c0 498 -9 783 -24 781 -6 -1 -51 -6 -101 -11z"/>
</g>
</svg>
